<svg xmlns="http://www.w3.org/2000/svg" xmlns:xlink="http://www.w3.org/1999/xlink" id="svg4137" width="504.566" height="577.672" x="0" y="0" enable-background="new 0 0 504.566 577.672" version="1.1" viewBox="0 0 504.566 577.672" xml:space="preserve"><g id="path4697_1_"><polygon fill="#FFCB94" points="16 152.415 252.29 15.998 488.572 152.415 488.572 425.249 252.29 561.667 16.008 425.249"/><g><polyline fill="none" stroke="#214255" stroke-miterlimit="100" stroke-width="40" points="16 152.425 16 152.415 16.009 152.41"/><line x1="75.075" x2="222.748" y1="118.309" y2="33.053" fill="none" stroke="#214255" stroke-dasharray="68.208 0 68.208 68.203" stroke-miterlimit="100" stroke-width="40"/><polyline fill="none" stroke="#214255" stroke-miterlimit="100" stroke-width="40" points="252.281 16.002 252.29 15.998 252.299 16.002"/><line x1="311.363" x2="459.031" y1="50.104" y2="135.36" fill="none" stroke="#214255" stroke-dasharray="68.206 0 68.206 68.201" stroke-miterlimit="100" stroke-width="40"/><polyline fill="none" stroke="#214255" stroke-miterlimit="100" stroke-width="40" points="488.563 152.41 488.572 152.415 488.572 152.425"/><line x1="488.572" x2="488.572" y1="220.626" y2="391.138" fill="none" stroke="#214255" stroke-dasharray="68.206 0 68.206 68.201" stroke-miterlimit="100" stroke-width="40"/><polyline fill="none" stroke="#214255" stroke-miterlimit="100" stroke-width="40" points="488.572 425.239 488.572 425.249 488.563 425.253"/><line x1="429.499" x2="281.831" y1="459.354" y2="544.611" fill="none" stroke="#214255" stroke-dasharray="68.206 0 68.206 68.201" stroke-miterlimit="100" stroke-width="40"/><polyline fill="none" stroke="#214255" stroke-miterlimit="100" stroke-width="40" points="252.299 561.662 252.29 561.667 252.281 561.662"/><line x1="193.218" x2="45.549" y1="527.561" y2="442.304" fill="none" stroke="#214255" stroke-dasharray="68.206 0 68.206 68.202" stroke-miterlimit="100" stroke-width="40"/><polyline fill="none" stroke="#214255" stroke-miterlimit="100" stroke-width="40" points="16.017 425.253 16.008 425.249 16.008 425.239"/><line x1="16.006" x2="16.001" y1="357.038" y2="186.525" fill="none" stroke="#214255" stroke-dasharray="68.206 0 68.206 68.201" stroke-miterlimit="100" stroke-width="40"/></g></g><g id="path4697"><g><polyline fill="none" stroke="#F7941E" stroke-miterlimit="100" stroke-width="40" points="16.002 228.415 16 152.415 81.819 114.416"/><polyline fill="none" stroke="#F7941E" stroke-miterlimit="100" stroke-width="40" points="186.472 53.997 252.29 15.998 318.108 53.998"/><polyline fill="none" stroke="#F7941E" stroke-miterlimit="100" stroke-width="40" points="422.754 114.415 488.572 152.415 488.572 228.415"/><polyline fill="none" stroke="#F7941E" stroke-miterlimit="100" stroke-width="40" points="488.572 349.249 488.572 425.249 422.754 463.249"/><polyline fill="none" stroke="#F7941E" stroke-miterlimit="100" stroke-width="40" points="318.108 523.667 252.29 561.667 186.472 523.667"/><polyline fill="none" stroke="#F7941E" stroke-miterlimit="100" stroke-width="40" points="81.826 463.249 16.008 425.249 16.006 349.249"/></g></g></svg>