<svg xmlns="http://www.w3.org/2000/svg" xmlns:xlink="http://www.w3.org/1999/xlink" width="1300" height="650"><defs><polygon id="pt" fill="#FFF" points="-.162 0 0 -.5 .162 0" transform="scale(0.0616)"/><g id="star"><use transform="rotate(-144)" xlink:href="#pt"/><use transform="rotate(-72)" xlink:href="#pt"/><use xlink:href="#pt"/><use transform="rotate(72)" xlink:href="#pt"/><use transform="rotate(144)" xlink:href="#pt"/></g><g id="s5"><use x="-.252" xlink:href="#star"/><use x="-.126" xlink:href="#star"/><use xlink:href="#star"/><use x=".126" xlink:href="#star"/><use x=".252" xlink:href="#star"/></g><g id="s6"><use x="-.063" xlink:href="#s5"/><use x=".315" xlink:href="#star"/></g><g id="x4"><use xlink:href="#s6"/><use y=".054" xlink:href="#s5"/><use y=".108" xlink:href="#s6"/><use y=".162" xlink:href="#s5"/></g><g id="u"><use y="-.216" xlink:href="#x4"/><use xlink:href="#x4"/><use y=".216" xlink:href="#s6"/></g><rect id="stripe" width="1300" height="50" fill="#B22234"/></defs><rect width="1300" height="650" fill="#FFF"/><use xlink:href="#stripe"/><use y="100" xlink:href="#stripe"/><use y="200" xlink:href="#stripe"/><use y="300" xlink:href="#stripe"/><use y="400" xlink:href="#stripe"/><use y="500" xlink:href="#stripe"/><use y="600" xlink:href="#stripe"/><rect width="494" height="350" fill="#3C3B6E"/><use transform="translate(247,175) scale(650)" xlink:href="#u"/><svg width="1300" height="650" viewBox="0 0 60 30"><clipPath id="t"><path d="M30,15L60,30V15H0V30H30z"/></clipPath><clipPath id="uk"><path d="M0,30H60V0z"/></clipPath><g clip-path="url(#uk)"><path fill="#00247d" d="M0,0 v30 h60 v-30 z"/><path stroke="#fff" stroke-width="6" d="M0,0 L60,30 M60,0 L0,30"/><path fill="none" stroke="#cf142b" stroke-width="4" d="M0,30 L30,15 L60,30" clip-path="url(#t)"/><path stroke="#fff" stroke-width="10" d="M30,0 v30 M0,15 h60"/><path stroke="#cf142b" stroke-width="6" d="M30,0 v30 M0,15 h60"/></g></svg></svg>